PathFileType	4	(X/Y/Z)	4_coords_data.trc
DataRate	CameraRate	NumFrames	NumMarkers	Units	OrigDataRate	OrigDataStartFrame	OrigNumFrames
30.0	30.0	6	21	m	30.0	10	57
Frame#	Time	THUMB_TIP	THUMB_IP	THUMB_MCP	THUMB_CMC	INDEX_TIP	INDEX_DIP	INDEX_PIP	INDEX_MCP	MIDDLE_TIP	MIDDLE_DIP	MIDDLE_PIP	MIDDLE_MCP	RING_TIP	RING_DIP	RING_PIP	RING_MCP	PINKY_TIP	PINKY_DIP	PINKY_PIP	PINKY_MCP	WRIST
X1	Y1	Z1	X2	Y2	Z2	X3	Y3	Z3	X4	Y4	Z4	X5	Y5	Z5	X6	Y6	Z6	X7	Y7	Z7	X8	Y8	Z8	X9	Y9	Z9	X10	Y10	Z10	X11	Y11	Z11	X12	Y12	Z12	X13	Y13	Z13	X14	Y14	Z14	X15	Y15	Z15	X16	Y16	Z16	X17	Y17	Z17	X18	Y18	Z18	X19	Y19	Z19	X20	Y20	Z20	X21	Y21	Z21
9	0.3	-0.000878803014755249	-0.030029699325561522	1.06302001953125	-0.007832859992980957	-0.05228670120239258	1.0758199462890625	-0.027918800354003907	-0.06619239807128906	1.0970799560546876	-0.03931340026855469	-0.03459120178222656	1.10752001953125	-0.03744889831542969	-0.05480070114135742	1.0796300048828125	-0.02277510070800781	-0.05662459945678711	1.069800048828125	-0.019549600601196288	-0.060868900299072264	1.0491700439453124	-0.06389680099487305	-0.06260419845581054	1.0506099853515625	-0.02501759910583496	-0.038751998901367185	1.0813199462890626	-0.02249799919128418	-0.036278701782226565	1.07625	-0.014038299560546875	-0.03695149993896484	1.048280029296875	-0.06126739883422851	-0.038731899261474606	1.0409000244140625	-0.02038920021057129	-0.02414780044555664	1.07547998046875	-0.026131900787353515	-0.017913700103759766	1.0844000244140626	-0.009010680198669433	-0.015286800384521484	1.061780029296875	-0.051939201354980466	-0.013859700202941895	1.0418900146484376	-0.03873820114135742	-0.0010239700078964228	1.0861099853515626	-0.02504319953918457	-0.0009543780088424681	1.0826300048828126	-0.013841099739074707	0.0043681998252868654	1.064260009765625	-0.04606790161132813	0.010285099983215333	1.04743994140625	-0.07570559692382813	-0.007949900150299073	1.1201099853515626
10	0.3333333333333333	-0.001029770016670227	-0.030446199417114257	1.0631500244140626	-0.00812296962738037	-0.052616199493408206	1.0760699462890626	-0.028378299713134766	-0.06661409759521485	1.096969970703125	-0.03985210037231445	-0.03487680053710938	1.107489990234375	-0.03835020065307617	-0.055301700592041016	1.0789200439453126	-0.022957000732421875	-0.05688539886474609	1.06956005859375	-0.019707700729370118	-0.061118698120117186	1.0491300048828125	-0.06400810241699219	-0.0628041000366211	1.05025	-0.02521619987487793	-0.03905899810791016	1.080469970703125	-0.02298889923095703	-0.03661539840698242	1.0756099853515626	-0.014146300315856933	-0.03716469955444336	1.0481600341796875	-0.06134099960327148	-0.03887720108032226	1.0406600341796874	-0.020559099197387694	-0.02441029930114746	1.0753499755859375	-0.02635009956359863	-0.01823629951477051	1.0843699951171875	-0.009179550170898438	-0.01558489990234375	1.0617900390625	-0.0519718017578125	-0.014043399810791016	1.04177001953125	-0.039045501708984375	-0.00131862998008728	1.0865799560546876	-0.02523500061035156	-0.001289510011672973	1.0825999755859375	-0.013958999633789063	0.004099810123443602	1.0644000244140626	-0.04609600067138672	0.010077500343322754	1.047489990234375	-0.0757654037475586	-0.0081845703125	1.119530029296875
11	0.36666666666666664	-0.001367319941520691	-0.030618000030517577	1.06331005859375	-0.008499750137329102	-0.05290110015869141	1.07597998046875	-0.028726900100708008	-0.06687809753417968	1.09697998046875	-0.04028210067749023	-0.03531439971923828	1.1074000244140625	-0.038562198638916016	-0.055998401641845705	1.0787900390625	-0.023270500183105468	-0.057118598937988284	1.069760009765625	-0.01984830093383789	-0.061389198303222654	1.049239990234375	-0.06415019989013672	-0.0631697998046875	1.0501099853515625	-0.025457599639892577	-0.03957379913330078	1.0808800048828124	-0.023262699127197264	-0.03699610137939453	1.0754000244140625	-0.014301600456237793	-0.03747719955444336	1.048280029296875	-0.061478099822998046	-0.03920439910888672	1.0405	-0.020960500717163086	-0.024768299102783203	1.07547998046875	-0.026871000289916992	-0.018565099716186525	1.084489990234375	-0.009473259925842286	-0.01588010025024414	1.0619300537109375	-0.052154899597167965	-0.014383399963378906	1.0416199951171874	-0.0397666015625	-0.001322090029716491	1.08672998046875	-0.025738300323486327	-0.001677829980850219	1.082760009765625	-0.01442240047454834	0.0038120200634002683	1.0646500244140624	-0.046295700073242185	0.009698789596557617	1.0473800048828126	-0.07647109985351562	-0.008703280448913574	1.1193199462890624
12	0.4	-0.001597659945487976	-0.030796199798583983	1.0630699462890625	-0.00883100986480713	-0.05322949981689453	1.0758900146484376	-0.02894540023803711	-0.06717649841308594	1.09672998046875	-0.04070970153808594	-0.035545799255371095	1.1073900146484374	-0.03854679870605469	-0.05599649810791016	1.0788599853515626	-0.023649200439453125	-0.057640399932861325	1.0691700439453125	-0.02010689926147461	-0.06163119888305664	1.049030029296875	-0.06446890258789062	-0.06345959854125977	1.04997998046875	-0.025902700424194337	-0.0396156005859375	1.081760009765625	-0.023494800567626952	-0.037262298583984374	1.0752099609375	-0.014621100425720214	-0.037717201232910155	1.048219970703125	-0.06180400085449219	-0.039460899353027344	1.0403900146484375	-0.02140130043029785	-0.024945600509643555	1.076	-0.027017400741577147	-0.018883100509643556	1.0842900390625	-0.009809160232543945	-0.016108999252319334	1.0618299560546876	-0.052551300048828124	-0.014654000282287598	1.0415799560546875	-0.03981380081176758	-0.001779070019721984	1.0863800048828125	-0.02599810028076172	-0.001978960037231445	1.08268994140625	-0.014621199607849121	0.00347596001625061	1.06456005859375	-0.046655300140380856	0.009416110038757324	1.0473199462890626	-0.07701200103759766	-0.00903141975402832	1.1195899658203126
13	0.43333333333333335	-0.002031160116195678	-0.031245100021362306	1.0631700439453124	-0.00915050983428955	-0.05352330017089844	1.0758599853515625	-0.02937120056152344	-0.06739409637451171	1.0965899658203124	-0.04100099945068359	-0.03576119995117188	1.107239990234375	-0.03902980041503906	-0.05619599914550781	1.0789000244140625	-0.023929100036621093	-0.057618400573730466	1.06927001953125	-0.020475900650024415	-0.06171200180053711	1.0488499755859375	-0.06482530212402343	-0.06346659851074218	1.04977001953125	-0.02612070083618164	-0.03988550186157227	1.0807099609375	-0.02387070083618164	-0.03744929885864258	1.075280029296875	-0.014968199729919434	-0.03784439849853516	1.0480899658203124	-0.062089599609375	-0.039445899963378904	1.04022998046875	-0.021602800369262695	-0.025181100845336913	1.075280029296875	-0.02737190055847168	-0.01912610054016113	1.0841800537109374	-0.010085700035095214	-0.016287799835205077	1.06177001953125	-0.05281589889526367	-0.01465530014038086	1.0415400390625	-0.04038330078125	-0.0019022699594497682	1.086719970703125	-0.026339199066162108	-0.002290009975433349	1.0828299560546875	-0.014851400375366211	0.0033082098960876462	1.064760009765625	-0.04685850143432617	0.009347399711608887	1.0473800048828126	-0.07730809783935547	-0.009201160430908203	1.1193599853515626
14	0.4666666666666667	-0.002182590007781982	-0.03131159973144531	1.06277001953125	-0.009603750228881837	-0.05360210037231445	1.07575	-0.029739400863647462	-0.06744300079345703	1.0963800048828125	-0.04143830108642578	-0.03580960083007813	1.107280029296875	-0.040186100006103516	-0.056115398406982424	1.0791300048828125	-0.024357700347900392	-0.057679599761962894	1.06897998046875	-0.020982799530029298	-0.06171379852294922	1.048510009765625	-0.06527919769287109	-0.06326969909667969	1.0496400146484375	-0.026520099639892578	-0.03996490097045898	1.0805400390625	-0.02402899932861328	-0.03750970077514648	1.075030029296875	-0.015325200080871583	-0.0378202018737793	1.0478599853515624	-0.062471000671386716	-0.039194900512695315	1.0401099853515625	-0.021893699645996093	-0.025128400802612305	1.076280029296875	-0.02772450065612793	-0.019181800842285157	1.0840699462890624	-0.0103774995803833	-0.016317100524902345	1.061800048828125	-0.05309360122680664	-0.014456000328063965	1.041550048828125	-0.04043600082397461	-0.0019835400581359863	1.087260009765625	-0.026683799743652342	-0.0022989599704742432	1.0828599853515626	-0.015071499824523925	0.003305089950561523	1.0648499755859375	-0.047101001739501956	0.009516169548034668	1.047550048828125	-0.07737190246582032	-0.009071829795837403	1.1195400390625
